<svg xmlns="http://www.w3.org/2000/svg" viewBox="0 0 16 16" shape-rendering="crispEdges">
  <rect width="16" height="16" rx="2" fill="#1d4ed8"/>
  <!-- D -->
  <rect x="2" y="5" width="3" height="1" fill="#fff"/>
  <rect x="2" y="6" width="1" height="1" fill="#fff"/>
  <rect x="5" y="6" width="1" height="1" fill="#fff"/>
  <rect x="2" y="7" width="1" height="1" fill="#fff"/>
  <rect x="6" y="7" width="1" height="1" fill="#fff"/>
  <rect x="2" y="8" width="1" height="1" fill="#fff"/>
  <rect x="6" y="8" width="1" height="1" fill="#fff"/>
  <rect x="2" y="9" width="1" height="1" fill="#fff"/>
  <rect x="6" y="9" width="1" height="1" fill="#fff"/>
  <rect x="2" y="10" width="1" height="1" fill="#fff"/>
  <rect x="5" y="10" width="1" height="1" fill="#fff"/>
  <rect x="2" y="11" width="3" height="1" fill="#fff"/>
  <!-- C -->
  <rect x="10" y="5" width="3" height="1" fill="#fff"/>
  <rect x="9" y="6" width="1" height="1" fill="#fff"/>
  <rect x="13" y="6" width="1" height="1" fill="#fff"/>
  <rect x="9" y="7" width="1" height="1" fill="#fff"/>
  <rect x="9" y="8" width="1" height="1" fill="#fff"/>
  <rect x="9" y="9" width="1" height="1" fill="#fff"/>
  <rect x="9" y="10" width="1" height="1" fill="#fff"/>
  <rect x="13" y="10" width="1" height="1" fill="#fff"/>
  <rect x="10" y="11" width="3" height="1" fill="#fff"/>
</svg>
